# xmcd
#
# Track frame offsets: 
#        150
#        9782
#        13181
#        24502
#        25890
#        39192
#        40398
#        51575
#        60880
#        68503
#        77671
#        93170
#        94764
#        104919
#        106227
#        117853
#        128190
#        130357
#        142215
#        152035
#        163502
#        175599
#        187705
#        198483
#        209333
#        221237
#        230468
#        240835
#        252230
#        263656
#        272755
#        284775
#        296788
#        308236
#        322633
#        336334
#
# Disc length: 4648 seconds
#
# Revision: 1
# Processed by: cddbd v1.5.2PL0 Copyright (c) Steve Scherf et al.
# Submitted via: ExactAudioCopyFreeDBPlugin 1.0
#
DISCID=fd122624
DTITLE=Bobby Bare - A Bird Named Yesterday - Talk Me Some Sense
DYEAR=2006
DGENRE=Country
TTITLE0=A Bird Named Yesterday
TTITLE1=Recitation
TTITLE2=Somebody Bought My Old Home Town
TTITLE3=Recitation
TTITLE4=Ode To The Little Brown Shack Out Back
TTITLE5=Recitation
TTITLE6=The Day The Saw Mill Closed Down
TTITLE7=Recitation
TTITLE8=The Air Conditioner Song
TTITLE9=Recitation
TTITLE10=I've Got A Thing About Trains
TTITLE11=Recitation
TTITLE12=The Old Gang's Gone
TTITLE13=Recitation
TTITLE14=They Covered Up The Old Swimming Hole
TTITLE15=The Church In The Wildwood
TTITLE16=A Bird Named Yesterday (Chorus Only)
TTITLE17=Passin' Through
TTITLE18=You Can't Stop The Wild Wind From Blowing
TTITLE19=Got Leavin' On Her Mind
TTITLE20=The Long Black Veil
TTITLE21=Heaven Help My Soul
TTITLE22=Talk Me Some Sense
TTITLE23=It AIn't Me Babe
TTITLE24=Are The Good Times Past And Gone
TTITLE25=What Color (Is A Man)
TTITLE26=A Little Bit Later On Down The Line
TTITLE27=Salt Lake City
TTITLE28=(For A While) We Helped Each Other Out
TTITLE29=When I've Learned
TTITLE30=Sandy's Crying Again
TTITLE31=When Am I Ever Gonna Settle Down
TTITLE32=Don't Do Like I Done Son
TTITLE33=The Law Is For The Protection Of The People
TTITLE34=If There's Not A Hell (There Ought To Be)
TTITLE35=The Town That Broke My Heart
EXTD=
EXTT0=
EXTT1=
EXTT2=
EXTT3=
EXTT4=
EXTT5=
EXTT6=
EXTT7=
EXTT8=
EXTT9=
EXTT10=
EXTT11=
EXTT12=
EXTT13=
EXTT14=
EXTT15=
EXTT16=
EXTT17=
EXTT18=
EXTT19=
EXTT20=
EXTT21=
EXTT22=
EXTT23=
EXTT24=
EXTT25=
EXTT26=
EXTT27=
EXTT28=
EXTT29=
EXTT30=
EXTT31=
EXTT32=
EXTT33=
EXTT34=
EXTT35=
PLAYORDER=
